<svg width="130" height="20" viewBox="0 0 130 20" fill="none" xmlns="http://www.w3.org/2000/svg">
<g clip-path="url(#clip0_1101_407)">
<path d="M29.94 0H26.7296C26.6346 0 26.5542 0.0699875 26.5412 0.164168L25.1285 10.3003V15.4249C25.1285 15.5303 25.043 15.6154 24.938 15.6154H24.4576C24.3522 15.6154 24.2671 15.5303 24.2671 15.4249V10.8265L22.5187 0.159848C22.5031 0.0673954 22.4236 0 22.3303 0H18.7394C18.6456 0 18.5661 0.0673954 18.551 0.159848L16.7983 10.9202V15.3903C16.7983 15.4957 16.7127 15.5809 16.6078 15.5809H16.1269C16.0219 15.5809 15.9368 15.4957 15.9368 15.3903V10.3901L14.5051 0.164168C14.4917 0.0699875 14.4114 0 14.3163 0H11.1055C11.0494 0 10.9958 0.0250572 10.9595 0.0678274C10.9237 0.11103 10.9081 0.167624 10.918 0.222923L14.366 19.8419C14.3824 19.9335 14.4615 19.9996 14.5539 19.9996H18.2633C18.3566 19.9996 18.4361 19.9322 18.4516 19.8402L20.0652 10.0229V6.12477C20.0652 6.01979 20.1503 5.93468 20.2558 5.93468H20.7362C20.8416 5.93468 20.9267 6.01979 20.9267 6.12477V9.44658L22.6172 19.8397C22.6323 19.9317 22.7118 19.9996 22.8051 19.9996H26.4911C26.5836 19.9996 26.6626 19.9335 26.6786 19.8419L30.1266 0.222923C30.1365 0.167624 30.121 0.110597 30.0851 0.0678274C30.0497 0.0250572 29.9965 0 29.94 0Z" fill="#293A61"/>
<path d="M4.94665 0C3.60047 0 2.42753 0.486456 1.45937 1.44641C0.490776 2.40593 0 3.58405 0 4.94665V5.54111C0 7.80706 1.12758 9.61853 3.35205 10.925C5.45254 12.1592 6.52482 13.349 6.53951 14.4589V15.0534C6.53951 15.4962 6.38657 15.8647 6.07206 16.1788C5.75755 16.4929 5.38947 16.6462 4.94665 16.6462C4.50339 16.6462 4.13531 16.4933 3.8208 16.1788C3.50629 15.8647 3.35335 15.4966 3.35335 15.0534V13.27C3.35335 13.1646 3.26824 13.0794 3.16283 13.0794H0.190521C0.0851082 13.079 0 13.1646 0 13.27V15.0534C0 16.416 0.490776 17.5936 1.45937 18.554C2.42753 19.514 3.6009 20.0004 4.94665 20.0004C6.30881 20.0004 7.48607 19.5135 8.44645 18.5532C9.40684 17.5928 9.89329 16.4155 9.89329 15.0534V14.4589C9.89329 12.1636 8.7588 10.3007 6.51056 8.91649C4.41569 7.80058 3.35335 6.673 3.35335 5.56487V4.94665C3.35335 4.50382 3.50629 4.13531 3.8208 3.8208C4.13574 3.50629 4.50339 3.35378 4.94665 3.35378C5.38904 3.35378 5.75755 3.50672 6.07206 3.8208C6.38657 4.13574 6.53951 4.50382 6.53951 4.94665V6.75422C6.53951 6.8592 6.62505 6.94431 6.73003 6.94431H9.70277C9.80818 6.94431 9.89329 6.8592 9.89329 6.75422V4.94665C9.89329 3.58448 9.40684 2.40679 8.44645 1.44641C7.48607 0.486888 6.30881 0 4.94665 0Z" fill="#293A61"/>
<path d="M58.5 3.35378C58.605 3.35378 58.6901 3.26867 58.6901 3.16326V0.190949C58.6901 0.0855355 58.605 0.000427246 58.5 0.000427246H50.7712C50.6662 0.000427246 50.5811 0.0855355 50.5811 0.190949V19.8099C50.5811 19.9149 50.6662 20 50.7712 20H58.5C58.605 20 58.6901 19.9149 58.6901 19.8099V16.8372C58.6901 16.7318 58.605 16.6466 58.5 16.6466H53.9344V12.2711H57.3111C57.4165 12.2711 57.5016 12.186 57.5016 12.0806V9.1083C57.5016 9.00289 57.4165 8.91778 57.3111 8.91778H53.9344V3.35378H58.5Z" fill="#293A61"/>
<path d="M34.8386 0H31.8663C31.7609 0 31.6758 0.0851082 31.6758 0.190521V19.8095C31.6758 19.9145 31.7614 19.9996 31.8663 19.9996H34.8386C34.9441 19.9996 35.0292 19.9145 35.0292 19.8095V0.190521C35.0292 0.0851082 34.9441 0 34.8386 0Z" fill="#293A61"/>
<path d="M43.2808 0H38.5246C38.4192 0 38.3341 0.0851082 38.3341 0.190521V19.8095C38.3341 19.9145 38.4192 19.9996 38.5246 19.9996H41.4974C41.6024 19.9996 41.6879 19.9145 41.6879 19.8095V14.4209H43.2808C44.6429 14.4209 45.8202 13.934 46.7806 12.9736C47.741 12.0132 48.2274 10.836 48.2274 9.4738V4.94665C48.2274 3.58491 47.7448 2.40766 46.7931 1.44727C45.8405 0.486888 44.6589 0 43.2808 0ZM44.8741 9.47423C44.8741 9.91705 44.7211 10.2851 44.4066 10.5996C44.0917 10.9142 43.7236 11.0671 43.2808 11.0671H41.6879V3.35378H43.2808C43.7387 3.35378 44.1102 3.50629 44.417 3.81907C44.7246 4.13401 44.8741 4.50296 44.8741 4.94665V9.47423Z" fill="#293A61"/>
<path d="M99.1986 0H95.9878C95.8928 0 95.8124 0.0699875 95.7995 0.164168L94.3872 10.3003V15.4573C94.3872 15.5623 94.3016 15.6474 94.1967 15.6474H93.7163C93.6108 15.6474 93.5257 15.5623 93.5257 15.4573V10.8265L91.7773 0.159848C91.7618 0.0673954 91.6823 0 91.5885 0H87.998C87.9043 0 87.8248 0.0673954 87.8097 0.159848L86.0569 10.9202V15.4219C86.0569 15.5273 85.9714 15.6124 85.8664 15.6124H85.386C85.281 15.6124 85.1955 15.5273 85.1955 15.4219V10.3901L83.7633 0.164168C83.7504 0.0699875 83.6696 0 83.575 0H80.3646C80.3085 0 80.2549 0.0250572 80.2186 0.0678274C80.1823 0.11103 80.1672 0.167624 80.1767 0.222923L83.6251 19.8419C83.6411 19.933 83.7201 19.9996 83.8126 19.9996H87.5224C87.6157 19.9996 87.6952 19.9322 87.7107 19.8402L89.3243 10.0229V6.15674C89.3243 6.05132 89.4094 5.96622 89.5148 5.96622H89.9952C90.1007 5.96622 90.1858 6.05132 90.1858 6.15674V9.44658L91.8763 19.8397C91.8914 19.9317 91.9709 19.9996 92.0646 19.9996H95.7506C95.8431 19.9996 95.9226 19.933 95.9386 19.8419L99.3865 0.222923C99.3965 0.167624 99.3809 0.110597 99.3451 0.0678274C99.3083 0.0250572 99.2552 0 99.1986 0Z" fill="#293A61"/>
<path d="M104.097 0H101.125C101.02 0 100.934 0.0851082 100.934 0.190521V19.8095C100.934 19.9145 101.02 19.9996 101.125 19.9996H104.097C104.203 19.9996 104.288 19.9145 104.288 19.8095V0.190521C104.288 0.0851082 104.203 0 104.097 0Z" fill="#293A61"/>
<path d="M74.2053 0C72.8591 0 71.6857 0.486456 70.718 1.44641C69.7494 2.40636 69.2587 3.58405 69.2587 4.94708V5.54154C69.2587 7.80749 70.3862 9.61896 72.6107 10.9254C74.7108 12.1597 75.7835 13.3495 75.7982 14.4593V15.0538C75.7982 15.4966 75.6452 15.8651 75.3307 16.1792C75.0158 16.4941 74.6477 16.6467 74.2053 16.6467C73.762 16.6467 73.394 16.4937 73.0794 16.1792C72.7649 15.8651 72.612 15.497 72.612 15.0538V13.2704C72.612 13.165 72.5269 13.0799 72.4215 13.0799H69.4492C69.3438 13.0799 69.2587 13.165 69.2587 13.2704V15.0538C69.2587 16.4164 69.7494 17.5941 70.718 18.5545C71.6862 19.5144 72.8591 20.0009 74.2053 20.0009C75.5675 20.0009 76.7447 19.514 77.7051 18.5536C78.6651 17.5932 79.1519 16.416 79.1519 15.0538V14.4593C79.1519 12.164 78.0175 10.3011 75.7692 8.91649C73.6743 7.80101 72.612 6.67344 72.612 5.5653V4.94665C72.612 4.50382 72.7649 4.13531 73.0794 3.8208C73.394 3.50629 73.762 3.35378 74.2053 3.35378C74.6477 3.35378 75.0158 3.50672 75.3307 3.8208C75.6452 4.13574 75.7982 4.50382 75.7982 4.94665V6.75379C75.7982 6.85921 75.8837 6.94431 75.9887 6.94431H78.961C79.0664 6.94431 79.1515 6.85921 79.1515 6.75379V4.94665C79.1515 3.58448 78.6646 2.40679 77.7047 1.44641C76.7447 0.486456 75.5675 0 74.2053 0Z" fill="#293A61"/>
<path d="M127.759 3.35378C127.864 3.35378 127.949 3.26867 127.949 3.16326V0.190949C127.949 0.0855355 127.864 0.000427246 127.759 0.000427246H120.03C119.925 0.000427246 119.84 0.0855355 119.84 0.190949V19.8099C119.84 19.9149 119.925 20 120.03 20H127.759C127.864 20 127.949 19.9149 127.949 19.8099V16.8372C127.949 16.7318 127.864 16.6466 127.759 16.6466H123.193V12.2711H126.57C126.675 12.2711 126.76 12.186 126.76 12.0806V9.1083C126.76 9.00289 126.675 8.91778 126.57 8.91778H123.193V3.35378H127.759Z" fill="#293A61"/>
<path d="M112.539 0H107.783C107.678 0 107.593 0.0851082 107.593 0.190521V19.8095C107.593 19.9145 107.678 19.9996 107.783 19.9996H110.756C110.861 19.9996 110.947 19.9145 110.947 19.8095V14.4209H112.539C113.901 14.4209 115.079 13.934 116.039 12.9736C116.999 12.0132 117.486 10.836 117.486 9.4738V4.94665C117.486 3.58535 117.003 2.40766 116.052 1.44727C115.099 0.486888 113.917 0 112.539 0ZM114.132 9.47423C114.132 9.91705 113.979 10.2851 113.665 10.5996C113.35 10.9142 112.982 11.0671 112.539 11.0671H110.947V3.35378H112.539C112.997 3.35378 113.368 3.50629 113.675 3.81907C113.983 4.13401 114.132 4.50296 114.132 4.94665V9.47423Z" fill="#293A61"/>
<path d="M129.32 8.82233H67.1556C66.9975 8.82233 66.8696 8.95064 66.8696 9.10833V12.0806C66.8696 12.2388 66.9975 12.3666 67.1556 12.3666H129.32C129.479 12.3666 129.606 12.2388 129.606 12.0806V9.10833C129.606 8.95064 129.479 8.82233 129.32 8.82233Z" fill="#293A61"/>
</g>
<defs>
<clipPath id="clip0_1101_407">
<rect width="129.606" height="20" fill="white"/>
</clipPath>
</defs>
</svg>
